<svg xmlns="http://www.w3.org/2000/svg">
<symbol id="trash" viewBox="0 0 54 64">
	<path
      d="M52.5,6H38.456c-0.11-1.25-0.495-3.358-1.813-4.711C35.809,0.434,34.751,0,33.499,0H23.5c-1.252,0-2.31,0.434-3.144,1.289
		C19.038,2.642,18.653,4.75,18.543,6H6.5c-0.552,0-1,0.447-1,1s0.448,1,1,1h46c0.552,0,1-0.447,1-1S53.052,6,52.5,6z M21.792,2.681
		C22.24,2.223,22.799,2,23.5,2h9.999c0.701,0,1.26,0.223,1.708,0.681c0.805,0.823,1.128,2.271,1.24,3.319H20.553
		C20.665,4.952,20.988,3.504,21.792,2.681z"
    />
	<path
      d="M10.456,54.021C10.493,55.743,11.565,59,15.364,59h28.272c3.799,0,4.871-3.257,4.907-4.958L50.376,10H8.624L10.456,54.021z
		 M48.291,12l-1.747,41.979C46.538,54.288,46.4,57,43.636,57H15.364c-2.734,0-2.898-2.717-2.909-3.042L10.709,12H48.291z"
    />
	<path
      d="M17.5,54h24c0.552,0,1-0.447,1-1s-0.448-1-1-1h-24c-0.552,0-1,0.447-1,1S16.948,54,17.5,54z"
    />
	<path
      d="M17.5,49h24c0.552,0,1-0.447,1-1s-0.448-1-1-1h-24c-0.552,0-1,0.447-1,1S16.948,49,17.5,49z"
    />
	<path
      d="M17.5,44h24c0.552,0,1-0.447,1-1s-0.448-1-1-1h-24c-0.552,0-1,0.447-1,1S16.948,44,17.5,44z"
    />
</symbol>


<symbol id="checkMark" viewBox="0 0 352.62 352.62">
<path
      d="M337.222,22.952c-15.912-8.568-33.66,7.956-44.064,17.748c-23.867,23.256-44.063,50.184-66.708,74.664
		c-25.092,26.928-48.348,53.856-74.052,80.173c-14.688,14.688-30.6,30.6-40.392,48.96c-22.032-21.421-41.004-44.677-65.484-63.648
		c-17.748-13.464-47.124-23.256-46.512,9.18c1.224,42.229,38.556,87.517,66.096,116.28c11.628,12.24,26.928,25.092,44.676,25.704
		c21.42,1.224,43.452-24.48,56.304-38.556c22.645-24.48,41.005-52.021,61.812-77.112c26.928-33.048,54.468-65.485,80.784-99.145
		C326.206,96.392,378.226,44.983,337.222,22.952z M26.937,187.581c-0.612,0-1.224,0-2.448,0.611
		c-2.448-0.611-4.284-1.224-6.732-2.448l0,0C19.593,184.52,22.653,185.132,26.937,187.581z"
    />
</symbol>
<symbol id="plus" viewBox="0 0 60.364 60.364">
<path
      d="M54.454,23.18l-18.609-0.002L35.844,5.91C35.845,2.646,33.198,0,29.934,0c-3.263,0-5.909,2.646-5.909,5.91v17.269
		L5.91,23.178C2.646,23.179,0,25.825,0,29.088c0.002,3.264,2.646,5.909,5.91,5.909h18.115v19.457c0,3.267,2.646,5.91,5.91,5.91
		c3.264,0,5.909-2.646,5.91-5.908V34.997h18.611c3.262,0,5.908-2.645,5.908-5.907C60.367,25.824,57.718,23.178,54.454,23.18z"
    />
</symbol>
<symbol id="change" viewBox="0 0 24 24">
<path
      d="M17.5 12C20.5376 12 23 14.4624 23 17.5C23 20.5376 20.5376 23 17.5 23C14.4624 23 12 20.5376 12 17.5C12 14.4624 14.4624 12 17.5 12ZM20.1465 15.1464L16.0541 19.2388L14.9 17.7C14.7343 17.4791 14.4209 17.4343 14.2 17.6C13.9791 17.7657 13.9343 18.0791 14.1 18.3L15.6 20.3C15.7826 20.5434 16.1384 20.5687 16.3536 20.3535L20.8536 15.8535C21.0488 15.6583 21.0488 15.3417 20.8536 15.1464C20.6583 14.9512 20.3417 14.9512 20.1465 15.1464Z"
    />
<path
      d="M11.0189 17H3L2.88338 17.0067C2.38604 17.0645 2 17.4872 2 18C2 18.5523 2.44772 19 3 19H11.1739C11.0602 18.5185 11 18.0163 11 17.5C11 17.3318 11.0064 17.165 11.0189 17Z"
    />
<path
      d="M11.4982 15H3C2.44772 15 2 14.5523 2 14C2 13.4872 2.38604 13.0645 2.88338 13.0067L3 13H12.8096C12.2573 13.5755 11.8099 14.2524 11.4982 15Z"
    />
<path
      d="M3 11C2.44772 11 2 10.5523 2 10C2 9.48716 2.38604 9.06449 2.88338 9.00673L3 9H21C21.5523 9 22 9.44772 22 10C22 10.5128 21.614 10.9355 21.1166 10.9933L21 11H3Z"
    />
<path
      d="M21 5H3L2.88338 5.00673C2.38604 5.06449 2 5.48716 2 6C2 6.55228 2.44772 7 3 7H21L21.1166 6.99327C21.614 6.93551 22 6.51284 22 6C22 5.44772 21.5523 5 21 5Z"
    />
</symbol>


<symbol id="edit" viewBox="0 0 64 64">
<g>
	<path
        d="M49.7574005,3.641675c-0.2174988-0.1520998-0.4855995-0.2114999-0.7468987-0.1636999
		c-0.2602997,0.0467-0.4914017,0.1949-0.6424026,0.4122999L25.3518009,36.9533768
		c-0.0888004,0.1266975-0.1463013,0.2728996-0.1687012,0.4269981l-1.5179996,10.4318008
		c-0.0545998,0.3733978,0.1072998,0.7467995,0.4173012,0.9622993c0.170599,0.1189003,0.3704987,0.1794014,0.5702991,0.1794014
		c0.1637993,0,0.3285999-0.0400009,0.4778004-0.1219025l9.2560005-5.0443001
		c0.1364975-0.0741005,0.2534981-0.1783981,0.341198-0.3061981L57.743,10.4184752
		c0.3149986-0.4524002,0.2038002-1.0743999-0.2486-1.3893003L49.7574005,3.641675z M33.2243996,42.1477737l-7.2964993,3.9757996
		l1.1973-8.222599l22.3104-32.0499992l6.0992012,4.2458L33.2243996,42.1477737z"
      />
	<path
        d="M56.2173004,23.6249752c-0.551899,0-0.9984016,0.4465008-0.9984016,0.9983997v33.4958
		c0,2.1419983-1.7421989,3.884201-3.8840981,3.884201H9.1864004c-2.1420002,0-3.8842001-1.7422028-3.8842001-3.884201V15.9707747
		c0-2.1418991,1.7421999-3.8841991,3.8842001-3.8841991h24.8432999c0.5517998,0,0.9982986-0.4465008,0.9982986-0.9983006
		s-0.4464989-0.9982996-0.9982986-0.9982996H9.1864004c-3.2427001,0-5.8809004,2.6381998-5.8809004,5.8807993V58.119175
		c0,3.2425995,2.6382,5.8807983,5.8809004,5.8807983h42.1483994c3.2425995,0,5.8807983-2.6381989,5.8807983-5.8807983v-33.4958
		C57.2155991,24.071476,56.7691002,23.6249752,56.2173004,23.6249752z"
      />
	<path
        d="M60.2495995,5.5067749l-8.0080986-5.3388c-0.4602013-0.306-1.0792999-0.1823-1.3843994,0.277
		c-0.3062019,0.4591-0.1823006,1.0782,0.2767982,1.3844l8.0082016,5.3386998
		c0.1706009,0.1131001,0.3625984,0.1676998,0.5527992,0.1676998c0.3226013,0,0.6394997-0.1559997,0.8316002-0.4445996
		C60.8325996,6.4319749,60.7088013,5.8128753,60.2495995,5.5067749z"
      />
</g>
</symbol>
</svg>
